<svg width="20" height="20" viewBox="0 0 20 20" fill="none" xmlns="http://www.w3.org/2000/svg">
<path d="M15.8333 5.83334H4.16667C3.24619 5.83334 2.5 6.57954 2.5 7.50001V15C2.5 15.9205 3.24619 16.6667 4.16667 16.6667H15.8333C16.7538 16.6667 17.5 15.9205 17.5 15V7.50001C17.5 6.57954 16.7538 5.83334 15.8333 5.83334Z" stroke="#6B7081" stroke-width="1.25" stroke-linecap="round" stroke-linejoin="round"/>
<path d="M6.66669 5.83333V4.16667C6.66669 3.72464 6.84228 3.30072 7.15484 2.98816C7.4674 2.67559 7.89133 2.5 8.33335 2.5H11.6667C12.1087 2.5 12.5326 2.67559 12.8452 2.98816C13.1578 3.30072 13.3334 3.72464 13.3334 4.16667V5.83333" stroke="#6B7081" stroke-width="1.25" stroke-linecap="round" stroke-linejoin="round"/>
<path d="M10 10V10.0083" stroke="#6B7081" stroke-width="1.25" stroke-linecap="round" stroke-linejoin="round"/>
<path d="M2.5 10.8333C4.82632 12.0056 7.39502 12.6162 10 12.6162C12.605 12.6162 15.1737 12.0056 17.5 10.8333" stroke="#6B7081" stroke-width="1.25" stroke-linecap="round" stroke-linejoin="round"/>
</svg>
