<svg width="20" height="20" viewBox="0 0 20 20" fill="none" xmlns="http://www.w3.org/2000/svg">
<path d="M9.99998 5.83333C10.9205 5.83333 11.6666 5.08714 11.6666 4.16667C11.6666 3.24619 10.9205 2.5 9.99998 2.5C9.07951 2.5 8.33331 3.24619 8.33331 4.16667C8.33331 5.08714 9.07951 5.83333 9.99998 5.83333Z" stroke="#6B7081" stroke-width="1.25" stroke-linecap="round" stroke-linejoin="round"/>
<path d="M16.6666 10.4167V14.375C16.6721 14.4676 16.6564 14.5602 16.6208 14.6458C16.5652 14.7799 16.4619 14.8885 16.3308 14.9508L11.7791 17.1008C11.2228 17.3637 10.6152 17.5 9.99997 17.5C9.38472 17.5 8.7771 17.3637 8.22081 17.1008L3.66914 14.9508C3.56173 14.8999 3.47228 14.8176 3.41262 14.7148C3.35295 14.612 3.32588 14.4935 3.33497 14.375L3.33331 10.4167" stroke="#6B7081" stroke-width="1.25" stroke-linecap="round" stroke-linejoin="round"/>
<path d="M3.6925 10.18L8.3875 8.23667C9.42012 7.80979 10.5799 7.80979 11.6125 8.23667L16.3075 10.18C16.4115 10.2225 16.5008 10.2945 16.5645 10.387C16.6282 10.4796 16.6634 10.5888 16.6659 10.7011C16.6684 10.8134 16.638 10.924 16.5785 11.0193C16.5189 11.1146 16.4329 11.1905 16.3308 11.2375L11.7792 13.3567C11.2218 13.6158 10.6146 13.7501 10 13.7501C9.38537 13.7501 8.77816 13.6158 8.22083 13.3567L3.66916 11.2375C3.56657 11.1908 3.47993 11.1151 3.41997 11.0197C3.36002 10.9242 3.32938 10.8133 3.33187 10.7006C3.33435 10.588 3.36984 10.4785 3.43395 10.3858C3.49805 10.2931 3.58795 10.2213 3.6925 10.1792V10.18Z" stroke="#6B7081" stroke-width="1.25" stroke-linecap="round" stroke-linejoin="round"/>
<path d="M10 5.83333V10.8333" stroke="#6B7081" stroke-width="1.25" stroke-linecap="round" stroke-linejoin="round"/>
</svg>
