<svg width="20" height="20" viewBox="0 0 20 20" fill="none" xmlns="http://www.w3.org/2000/svg">
<path d="M4.16669 4.16667V17.5" stroke="#6B7081" stroke-width="1.25" stroke-linecap="round" stroke-linejoin="round"/>
<path d="M15.8333 4.16667V11.6667" stroke="#6B7081" stroke-width="1.25" stroke-linecap="round" stroke-linejoin="round"/>
<path d="M4.16669 4.16667C4.94556 3.40323 5.99272 2.9756 7.08335 2.9756C8.17399 2.9756 9.22115 3.40323 10 4.16667C10.7789 4.93012 11.8261 5.35774 12.9167 5.35774C14.0073 5.35774 15.0545 4.93012 15.8334 4.16667" stroke="#6B7081" stroke-width="1.25" stroke-linecap="round" stroke-linejoin="round"/>
<path d="M4.16669 11.6667C4.94556 10.9032 5.99272 10.4756 7.08335 10.4756C8.17399 10.4756 9.22115 10.9032 10 11.6667C10.7789 12.4301 11.8261 12.8577 12.9167 12.8577C14.0073 12.8577 15.0545 12.4301 15.8334 11.6667" stroke="#6B7081" stroke-width="1.25" stroke-linecap="round" stroke-linejoin="round"/>
</svg>
