<svg width="20" height="20" viewBox="0 0 20 20" fill="none" xmlns="http://www.w3.org/2000/svg">
<path d="M2.5 17.5H17.5" stroke="#6B7081" stroke-width="1.25" stroke-linecap="round" stroke-linejoin="round"/>
<path d="M3.33331 17.5V5C3.33331 4.55798 3.50891 4.13405 3.82147 3.82149C4.13403 3.50893 4.55795 3.33334 4.99998 3.33334H15C15.442 3.33334 15.8659 3.50893 16.1785 3.82149C16.4911 4.13405 16.6666 4.55798 16.6666 5V17.5" stroke="#6B7081" stroke-width="1.25" stroke-linecap="round" stroke-linejoin="round"/>
<path d="M7.5 17.5V10.8333C7.5 10.1703 7.76339 9.53441 8.23223 9.06557C8.70107 8.59673 9.33696 8.33334 10 8.33334C10.663 8.33334 11.2989 8.59673 11.7678 9.06557C12.2366 9.53441 12.5 10.1703 12.5 10.8333V17.5" stroke="#6B7081" stroke-width="1.25" stroke-linecap="round" stroke-linejoin="round"/>
</svg>
