<svg width="20" height="20" viewBox="0 0 20 20" fill="none" xmlns="http://www.w3.org/2000/svg">
<path d="M16.25 11.31L10 17.5L3.75003 11.31C3.33778 10.9088 3.01306 10.4267 2.79632 9.89386C2.57957 9.36104 2.4755 8.78912 2.49064 8.21411C2.50579 7.63909 2.63983 7.07344 2.88432 6.55278C3.12882 6.03211 3.47847 5.56771 3.91127 5.18881C4.34406 4.80992 4.85061 4.52474 5.39904 4.35123C5.94746 4.17772 6.52587 4.11965 7.09783 4.18067C7.6698 4.24168 8.22294 4.42046 8.72242 4.70575C9.2219 4.99104 9.6569 5.37666 10 5.83833C10.3446 5.38002 10.7801 4.99776 11.2793 4.7155C11.7784 4.43324 12.3304 4.25704 12.9008 4.19793C13.4712 4.13882 14.0476 4.19808 14.594 4.37199C15.1404 4.5459 15.645 4.83072 16.0763 5.20863C16.5076 5.58654 16.8562 6.0494 17.1004 6.56824C17.3445 7.08708 17.479 7.65073 17.4953 8.22392C17.5116 8.79711 17.4094 9.36749 17.1951 9.89937C16.9809 10.4313 16.6591 10.9132 16.25 11.315" stroke="#6B7081" stroke-width="1.25" stroke-linecap="round" stroke-linejoin="round"/>
<path d="M9.99998 5.83334L8.33331 9.16667L11.6666 11.6667L9.99998 15V17.5" stroke="#6B7081" stroke-width="1.25" stroke-linecap="round" stroke-linejoin="round"/>
</svg>
