<svg width="34" height="34" viewBox="0 0 34 34" fill="none" xmlns="http://www.w3.org/2000/svg">
<path d="M9.91665 26.9167C11.4815 26.9167 12.75 25.6481 12.75 24.0833C12.75 22.5185 11.4815 21.25 9.91665 21.25C8.35184 21.25 7.08331 22.5185 7.08331 24.0833C7.08331 25.6481 8.35184 26.9167 9.91665 26.9167Z" stroke="#ED3237" stroke-width="1.25" stroke-linecap="round" stroke-linejoin="round"/>
<path d="M24.0833 26.9167C25.6481 26.9167 26.9167 25.6481 26.9167 24.0833C26.9167 22.5185 25.6481 21.25 24.0833 21.25C22.5185 21.25 21.25 22.5185 21.25 24.0833C21.25 25.6481 22.5185 26.9167 24.0833 26.9167Z" stroke="#ED3237" stroke-width="1.25" stroke-linecap="round" stroke-linejoin="round"/>
<path d="M14.1667 12.75L11.3333 15.5833M7.08333 24.0833H4.25V8.49998C4.25 8.12426 4.39926 7.76392 4.66493 7.49825C4.93061 7.23257 5.29094 7.08331 5.66667 7.08331H18.4167V15.5833H11.3333L14.1667 18.4166L7.08333 24.0833Z" stroke="#ED3237" stroke-width="1.25" stroke-linecap="round" stroke-linejoin="round"/>
<path d="M12.75 24.0833H21.25" stroke="#ED3237" stroke-width="1.25" stroke-linecap="round" stroke-linejoin="round"/>
<path d="M18.4167 8.5H25.5L29.75 15.5833V24.0833H26.9167" stroke="#ED3237" stroke-width="1.25" stroke-linecap="round" stroke-linejoin="round"/>
</svg>
