<svg width="34" height="34" viewBox="0 0 34 34" fill="none" xmlns="http://www.w3.org/2000/svg">
<path d="M26.9167 22.6667V26.9167C26.9167 27.2924 26.7674 27.6527 26.5017 27.9184C26.2361 28.1841 25.8757 28.3334 25.5 28.3334H8.49999C7.74854 28.3334 7.02787 28.0348 6.49652 27.5035C5.96517 26.9721 5.66666 26.2515 5.66666 25.5V8.50002M24.0833 11.3334V7.08335C24.0833 6.70763 23.9341 6.3473 23.6684 6.08162C23.4027 5.81594 23.0424 5.66669 22.6667 5.66669H8.49999C7.74854 5.66669 7.02787 5.9652 6.49652 6.49655C5.96517 7.0279 5.66666 7.74857 5.66666 8.50002C5.66666 9.25147 5.96517 9.97214 6.49652 10.5035C7.02787 11.0348 7.74854 11.3334 8.49999 11.3334H25.5C25.8757 11.3334 26.2361 11.4826 26.5017 11.7483C26.7674 12.014 26.9167 12.3743 26.9167 12.75V17L24.0833 11.3334Z" stroke="#FF7539" stroke-width="1.25" stroke-linecap="round" stroke-linejoin="round"/>
<path d="M28.3333 17V22.6667H22.6667C21.9152 22.6667 21.1946 22.3682 20.6632 21.8368C20.1319 21.3054 19.8333 20.5848 19.8333 19.8333C19.8333 19.0819 20.1319 18.3612 20.6632 17.8299C21.1946 17.2985 21.9152 17 22.6667 17H28.3333Z" stroke="#FF7539" stroke-width="1.25" stroke-linecap="round" stroke-linejoin="round"/>
</svg>
