<svg width="35" height="35" viewBox="0 0 35 35" fill="none" xmlns="http://www.w3.org/2000/svg">
<path d="M13.125 16.0417C16.3467 16.0417 18.9583 13.43 18.9583 10.2083C18.9583 6.98667 16.3467 4.375 13.125 4.375C9.90334 4.375 7.29166 6.98667 7.29166 10.2083C7.29166 13.43 9.90334 16.0417 13.125 16.0417Z" stroke="#3AB48A" stroke-width="1.875" stroke-linecap="round" stroke-linejoin="round"/>
<path d="M4.375 30.625V27.7083C4.375 26.1612 4.98958 24.6775 6.08354 23.5835C7.17751 22.4896 8.66124 21.875 10.2083 21.875H16.0417C17.5888 21.875 19.0725 22.4896 20.1665 23.5835C21.2604 24.6775 21.875 26.1612 21.875 27.7083V30.625" stroke="#3AB48A" stroke-width="1.875" stroke-linecap="round" stroke-linejoin="round"/>
<path d="M23.3333 4.56461C24.5881 4.88588 25.7003 5.61563 26.4945 6.63881C27.2887 7.66199 27.7198 8.9204 27.7198 10.2156C27.7198 11.5109 27.2887 12.7693 26.4945 13.7925C25.7003 14.8157 24.5881 15.5454 23.3333 15.8667" stroke="#3AB48A" stroke-width="1.875" stroke-linecap="round" stroke-linejoin="round"/>
<path d="M30.625 30.625V27.7083C30.6176 26.4209 30.1845 25.172 29.3931 24.1564C28.6017 23.1408 27.4966 22.4156 26.25 22.0938" stroke="#3AB48A" stroke-width="1.875" stroke-linecap="round" stroke-linejoin="round"/>
</svg>
