<svg width="19" height="20" viewBox="0 0 19 20" fill="none" xmlns="http://www.w3.org/2000/svg">
<path d="M15.4375 11.31L9.5 17.5L3.5625 11.31C3.17087 10.9088 2.86239 10.4267 2.65648 9.89387C2.45057 9.36105 2.3517 8.78913 2.36609 8.21412C2.38048 7.6391 2.50782 7.07345 2.74009 6.55279C2.97236 6.03212 3.30453 5.56772 3.71568 5.18882C4.12683 4.80993 4.60806 4.52475 5.12906 4.35124C5.65006 4.17773 6.19955 4.11966 6.74292 4.18067C7.28629 4.24169 7.81177 4.42047 8.28628 4.70576C8.76079 4.99105 9.17403 5.37667 9.5 5.83834C9.82738 5.38002 10.2411 4.99777 10.7153 4.71551C11.1895 4.43325 11.7139 4.25705 12.2557 4.19794C12.7976 4.13883 13.3452 4.19809 13.8643 4.372C14.3834 4.54591 14.8628 4.83073 15.2725 5.20864C15.6822 5.58655 16.0134 6.04941 16.2453 6.56825C16.4773 7.08709 16.605 7.65074 16.6205 8.22393C16.636 8.79712 16.5389 9.3675 16.3354 9.89938C16.1318 10.4313 15.8261 10.9132 15.4375 11.315" stroke="#6B7081" stroke-opacity="0.5" stroke-width="1.25" stroke-linecap="round" stroke-linejoin="round"/>
<path d="M9.5 5.83333L7.91667 9.16666L11.0833 11.6667L9.5 15V17.5" stroke="#6B7081" stroke-opacity="0.5" stroke-width="1.25" stroke-linecap="round" stroke-linejoin="round"/>
</svg>
