<svg width="19" height="20" viewBox="0 0 19 20" fill="none" xmlns="http://www.w3.org/2000/svg">
<path d="M8.70833 14.1667C8.95803 14.2814 9.22755 14.3406 9.5 14.3406C9.77244 14.3406 10.042 14.2814 10.2917 14.1667" stroke="#6B7081" stroke-opacity="0.5" stroke-width="1.25" stroke-linecap="round" stroke-linejoin="round"/>
<path d="M9.50001 2.5C5.80767 2.5 3.64484 4.4425 3.27592 7.1625C2.90579 9.67483 3.47315 12.2405 4.85926 14.3225C5.52637 15.349 6.38876 16.2185 7.3918 16.8758C8.71071 17.7092 10.2925 17.7092 11.6114 16.8758C12.6144 16.2185 13.4768 15.349 14.1439 14.3225C15.5244 12.2379 16.0912 9.67459 15.7273 7.1625C15.3583 4.44167 13.1955 2.5 9.50317 2.5H9.50001Z" stroke="#6B7081" stroke-opacity="0.5" stroke-width="1.25" stroke-linecap="round" stroke-linejoin="round"/>
<path d="M6.33333 9.16667L7.91666 10.8333" stroke="#6B7081" stroke-opacity="0.5" stroke-width="1.25" stroke-linecap="round" stroke-linejoin="round"/>
<path d="M12.6667 9.16667L11.0833 10.8333" stroke="#6B7081" stroke-opacity="0.5" stroke-width="1.25" stroke-linecap="round" stroke-linejoin="round"/>
</svg>
