<svg width="18" height="20" viewBox="0 0 18 20" fill="none" xmlns="http://www.w3.org/2000/svg">
<path d="M4.5 8.33334C5.74264 8.33334 6.75 7.21406 6.75 5.83334C6.75 4.45263 5.74264 3.33334 4.5 3.33334C3.25736 3.33334 2.25 4.45263 2.25 5.83334C2.25 7.21406 3.25736 8.33334 4.5 8.33334Z" stroke="#6B7081" stroke-opacity="0.5" stroke-width="1.25" stroke-linecap="round" stroke-linejoin="round"/>
<path d="M4.5 16.6667C5.74264 16.6667 6.75 15.5474 6.75 14.1667C6.75 12.7859 5.74264 11.6667 4.5 11.6667C3.25736 11.6667 2.25 12.7859 2.25 14.1667C2.25 15.5474 3.25736 16.6667 4.5 16.6667Z" stroke="#6B7081" stroke-opacity="0.5" stroke-width="1.25" stroke-linecap="round" stroke-linejoin="round"/>
<path d="M6.45 7.16666L14.25 15.8333" stroke="#6B7081" stroke-opacity="0.5" stroke-width="1.25" stroke-linecap="round" stroke-linejoin="round"/>
<path d="M6.45 12.8333L14.25 4.16666" stroke="#6B7081" stroke-opacity="0.5" stroke-width="1.25" stroke-linecap="round" stroke-linejoin="round"/>
</svg>
