<svg width="20" height="20" viewBox="0 0 20 20" fill="none" xmlns="http://www.w3.org/2000/svg">
<path d="M5.83335 8.33334H8.33335V5.83334L5.41669 2.91667C6.34971 2.47107 7.39794 2.32568 8.41702 2.50052C9.4361 2.67537 10.3759 3.16185 11.107 3.89298C11.8382 4.62411 12.3247 5.56392 12.4995 6.58301C12.6743 7.60209 12.529 8.65031 12.0834 9.58334L17.0834 14.5833C17.4149 14.9149 17.6011 15.3645 17.6011 15.8333C17.6011 16.3022 17.4149 16.7518 17.0834 17.0833C16.7518 17.4149 16.3022 17.6011 15.8334 17.6011C15.3645 17.6011 14.9149 17.4149 14.5834 17.0833L9.58335 12.0833C8.65033 12.5289 7.6021 12.6743 6.58302 12.4995C5.56394 12.3246 4.62413 11.8382 3.893 11.107C3.16187 10.3759 2.67539 9.43609 2.50054 8.417C2.32569 7.39792 2.47108 6.3497 2.91669 5.41667L5.83335 8.33334Z" stroke="#6B7081" stroke-width="1.25" stroke-linecap="round" stroke-linejoin="round"/>
</svg>
