<svg width="20" height="20" viewBox="0 0 20 20" fill="none" xmlns="http://www.w3.org/2000/svg">
<path d="M5.83335 15.8333C6.75383 15.8333 7.50002 15.0871 7.50002 14.1667C7.50002 13.2462 6.75383 12.5 5.83335 12.5C4.91288 12.5 4.16669 13.2462 4.16669 14.1667C4.16669 15.0871 4.91288 15.8333 5.83335 15.8333Z" stroke="#6B7081" stroke-width="1.25" stroke-linecap="round" stroke-linejoin="round"/>
<path d="M14.1667 15.8333C15.0871 15.8333 15.8333 15.0871 15.8333 14.1667C15.8333 13.2462 15.0871 12.5 14.1667 12.5C13.2462 12.5 12.5 13.2462 12.5 14.1667C12.5 15.0871 13.2462 15.8333 14.1667 15.8333Z" stroke="#6B7081" stroke-width="1.25" stroke-linecap="round" stroke-linejoin="round"/>
<path d="M8.33333 7.50001L6.66667 9.16667M4.16667 14.1667H2.5V5.00001C2.5 4.77899 2.5878 4.56703 2.74408 4.41075C2.90036 4.25447 3.11232 4.16667 3.33333 4.16667H10.8333V9.16667H6.66667L8.33333 10.8333L4.16667 14.1667Z" stroke="#6B7081" stroke-width="1.25" stroke-linecap="round" stroke-linejoin="round"/>
<path d="M7.5 14.1667H12.5" stroke="#6B7081" stroke-width="1.25" stroke-linecap="round" stroke-linejoin="round"/>
<path d="M10.8333 5H15L17.5 9.16667V14.1667H15.8333" stroke="#6B7081" stroke-width="1.25" stroke-linecap="round" stroke-linejoin="round"/>
</svg>
