<svg width="20" height="20" viewBox="0 0 20 20" fill="none" xmlns="http://www.w3.org/2000/svg">
<path d="M5 11.6667V6.66666C5 6.00362 5.26339 5.36773 5.73223 4.89889C6.20107 4.43005 6.83696 4.16666 7.5 4.16666C8.16304 4.16666 8.79893 4.43005 9.26777 4.89889C9.73661 5.36773 10 6.00362 10 6.66666V13.3333C10 13.9964 10.2634 14.6322 10.7322 15.1011C11.2011 15.5699 11.837 15.8333 12.5 15.8333C13.163 15.8333 13.7989 15.5699 14.2678 15.1011C14.7366 14.6322 15 13.9964 15 13.3333V8.33332" stroke="#6B7081" stroke-width="1.25" stroke-linecap="round" stroke-linejoin="round"/>
<path d="M16.6666 4.16667C16.6666 3.24619 15.9205 2.5 15 2.5C14.0795 2.5 13.3333 3.24619 13.3333 4.16667V6.66667C13.3333 7.58714 14.0795 8.33333 15 8.33333C15.9205 8.33333 16.6666 7.58714 16.6666 6.66667V4.16667Z" stroke="#6B7081" stroke-width="1.25" stroke-linecap="round" stroke-linejoin="round"/>
<path d="M6.66665 13.3333C6.66665 12.4129 5.92045 11.6667 4.99998 11.6667C4.07951 11.6667 3.33331 12.4129 3.33331 13.3333V15.8333C3.33331 16.7538 4.07951 17.5 4.99998 17.5C5.92045 17.5 6.66665 16.7538 6.66665 15.8333V13.3333Z" stroke="#6B7081" stroke-width="1.25" stroke-linecap="round" stroke-linejoin="round"/>
</svg>
