<svg width="20" height="20" viewBox="0 0 20 20" fill="none" xmlns="http://www.w3.org/2000/svg">
<path d="M10 17.5C14.1421 17.5 17.5 14.1421 17.5 10C17.5 5.85786 14.1421 2.5 10 2.5C5.85786 2.5 2.5 5.85786 2.5 10C2.5 14.1421 5.85786 17.5 10 17.5Z" stroke="#6B7081" stroke-width="1.25" stroke-linecap="round" stroke-linejoin="round"/>
<path d="M10 10.8333C10.4603 10.8333 10.8334 10.4602 10.8334 10C10.8334 9.53977 10.4603 9.16667 10 9.16667C9.53978 9.16667 9.16669 9.53977 9.16669 10C9.16669 10.4602 9.53978 10.8333 10 10.8333Z" stroke="#6B7081" stroke-width="1.25" stroke-linecap="round" stroke-linejoin="round"/>
<path d="M11.175 8.82501L13.3333 6.66667" stroke="#6B7081" stroke-width="1.25" stroke-linecap="round" stroke-linejoin="round"/>
<path d="M5.83331 9.99999C5.83331 8.89493 6.2723 7.83512 7.0537 7.05372C7.8351 6.27232 8.89491 5.83333 9.99998 5.83333" stroke="#6B7081" stroke-width="1.25" stroke-linecap="round" stroke-linejoin="round"/>
</svg>
