<svg width="20" height="20" viewBox="0 0 20 20" fill="none" xmlns="http://www.w3.org/2000/svg">
<path d="M9.99998 12.5C10.9205 12.5 11.6666 11.7538 11.6666 10.8333C11.6666 9.91286 10.9205 9.16667 9.99998 9.16667C9.07951 9.16667 8.33331 9.91286 8.33331 10.8333C8.33331 11.7538 9.07951 12.5 9.99998 12.5Z" stroke="#6B7081" stroke-width="1.25" stroke-linecap="round" stroke-linejoin="round"/>
<path d="M11.2083 9.62501L12.9166 7.91667" stroke="#6B7081" stroke-width="1.25" stroke-linecap="round" stroke-linejoin="round"/>
<path d="M5.33333 16.6667C4.11512 15.6984 3.22826 14.3752 2.79565 12.8804C2.36304 11.3856 2.4061 9.79324 2.91887 8.32401C3.43164 6.85478 4.38873 5.58142 5.65749 4.68042C6.92625 3.77941 8.44386 3.29536 10 3.29536C11.5561 3.29536 13.0737 3.77941 14.3425 4.68042C15.6113 5.58142 16.5684 6.85478 17.0811 8.32401C17.5939 9.79324 17.637 11.3856 17.2044 12.8804C16.7717 14.3752 15.8849 15.6984 14.6667 16.6667H5.33333Z" stroke="#6B7081" stroke-width="1.25" stroke-linecap="round" stroke-linejoin="round"/>
</svg>
