<svg width="20" height="20" viewBox="0 0 20 20" fill="none" xmlns="http://www.w3.org/2000/svg">
<path d="M5.83329 15.8333C6.75377 15.8333 7.49996 15.0871 7.49996 14.1667C7.49996 13.2462 6.75377 12.5 5.83329 12.5C4.91282 12.5 4.16663 13.2462 4.16663 14.1667C4.16663 15.0871 4.91282 15.8333 5.83329 15.8333Z" stroke="#6B7081" stroke-width="1.25" stroke-linecap="round" stroke-linejoin="round"/>
<path d="M14.1667 15.8333C15.0871 15.8333 15.8333 15.0871 15.8333 14.1667C15.8333 13.2462 15.0871 12.5 14.1667 12.5C13.2462 12.5 12.5 13.2462 12.5 14.1667C12.5 15.0871 13.2462 15.8333 14.1667 15.8333Z" stroke="#6B7081" stroke-width="1.25" stroke-linecap="round" stroke-linejoin="round"/>
<path d="M10.8333 5H15L17.5 9.16667M4.16667 14.1667H2.5V5C2.5 4.77899 2.5878 4.56703 2.74408 4.41075C2.90036 4.25447 3.11232 4.16667 3.33333 4.16667H10.8333V14.1667H4.16667ZM7.5 14.1667H12.5H7.5ZM15.8333 14.1667H17.5V9.16667H10.8333L15.8333 14.1667Z" stroke="#6B7081" stroke-width="1.25" stroke-linecap="round" stroke-linejoin="round"/>
<path d="M6.66667 6.66667V10M5 8.33333H8.33333H5Z" stroke="#6B7081" stroke-width="1.25" stroke-linecap="round" stroke-linejoin="round"/>
</svg>
