<svg width="20" height="20" viewBox="0 0 20 20" fill="none" xmlns="http://www.w3.org/2000/svg">
<path d="M5.66662 9.16667C5.22838 9.92681 4.99789 10.7889 4.99829 11.6663C4.9987 12.5437 5.22999 13.4056 5.66893 14.1653C6.10788 14.9251 6.73902 15.5559 7.49896 15.9945C8.2589 16.4331 9.12087 16.664 9.99829 16.664C10.8757 16.664 11.7377 16.4331 12.4976 15.9945C13.2576 15.5559 13.8887 14.9251 14.3276 14.1653C14.7666 13.4056 14.9979 12.5437 14.9983 11.6663C14.9987 10.7889 14.7682 9.92681 14.33 9.16667L9.99912 2.5L5.66579 9.16667H5.66662Z" stroke="#6B7081" stroke-width="1.25" stroke-linecap="round" stroke-linejoin="round"/>
<path d="M5 11.6667H15" stroke="#6B7081" stroke-width="1.25" stroke-linecap="round" stroke-linejoin="round"/>
<path d="M6.08752 14.7458L9.16669 11.6667" stroke="#6B7081" stroke-width="1.25" stroke-linecap="round" stroke-linejoin="round"/>
<path d="M8.55005 16.45L13.3334 11.6667L8.55005 16.45Z" stroke="#6B7081" stroke-width="1.25" stroke-linecap="round" stroke-linejoin="round"/>
</svg>
