<svg width="20" height="20" viewBox="0 0 20 20" fill="none" xmlns="http://www.w3.org/2000/svg">
<path d="M15.8333 13.3333V15.8333C15.8333 16.0543 15.7455 16.2663 15.5892 16.4226C15.433 16.5789 15.221 16.6667 15 16.6667H4.99998C4.55795 16.6667 4.13403 16.4911 3.82147 16.1785C3.50891 15.8659 3.33331 15.442 3.33331 15V4.99999M14.1666 6.66666V4.16666C14.1666 3.94565 14.0788 3.73369 13.9226 3.57741C13.7663 3.42113 13.5543 3.33333 13.3333 3.33333H4.99998C4.55795 3.33333 4.13403 3.50892 3.82147 3.82148C3.50891 4.13404 3.33331 4.55797 3.33331 4.99999C3.33331 5.44202 3.50891 5.86595 3.82147 6.17851C4.13403 6.49107 4.55795 6.66666 4.99998 6.66666H15C15.221 6.66666 15.433 6.75446 15.5892 6.91074C15.7455 7.06702 15.8333 7.27898 15.8333 7.49999V9.99999L14.1666 6.66666Z" stroke="#6B7081" stroke-width="1.25" stroke-linecap="round" stroke-linejoin="round"/>
<path d="M16.6667 10V13.3333H13.3334C12.8913 13.3333 12.4674 13.1577 12.1548 12.8452C11.8423 12.5326 11.6667 12.1087 11.6667 11.6667C11.6667 11.2246 11.8423 10.8007 12.1548 10.4882C12.4674 10.1756 12.8913 10 13.3334 10H16.6667Z" stroke="#6B7081" stroke-width="1.25" stroke-linecap="round" stroke-linejoin="round"/>
</svg>
