<svg width="20" height="20" viewBox="0 0 20 20" fill="none" xmlns="http://www.w3.org/2000/svg">
<path d="M3.75 11.31C3.33775 10.9088 3.01303 10.4267 2.79629 9.89387C2.57954 9.36105 2.47546 8.78913 2.49061 8.21412C2.50576 7.6391 2.6398 7.07345 2.88429 6.55279C3.12879 6.03212 3.47844 5.56772 3.91124 5.18882C4.34403 4.80993 4.85058 4.52475 5.39901 4.35124C5.94743 4.17773 6.52583 4.11966 7.0978 4.18067C7.66977 4.24169 8.22291 4.42047 8.72239 4.70576C9.22187 4.99105 9.65687 5.37667 10 5.83834C10.3446 5.38002 10.7801 4.99777 11.2792 4.71551C11.7784 4.43325 12.3304 4.25705 12.9008 4.19794C13.4711 4.13883 14.0476 4.19809 14.594 4.372C15.1404 4.54591 15.645 4.83073 16.0763 5.20864C16.5076 5.58655 16.8562 6.04941 17.1003 6.56825C17.3445 7.08709 17.4789 7.65074 17.4953 8.22393C17.5116 8.79712 17.4094 9.3675 17.1951 9.89938C16.9808 10.4313 16.6591 10.9132 16.25 11.315M16.25 11.31L10 17.5L3.75 11.31H16.25Z" stroke="#6B7081" stroke-width="1.25" stroke-linecap="round" stroke-linejoin="round"/>
</svg>
