<svg width="20" height="20" viewBox="0 0 20 20" fill="none" xmlns="http://www.w3.org/2000/svg">
<path d="M13.3333 4.99999H15.8333C16.0543 4.99999 16.2663 5.08779 16.4226 5.24407C16.5788 5.40035 16.6666 5.61231 16.6666 5.83333V15C16.6666 15.442 16.4911 15.8659 16.1785 16.1785C15.8659 16.4911 15.442 16.6667 15 16.6667C14.558 16.6667 14.134 16.4911 13.8215 16.1785C13.5089 15.8659 13.3333 15.442 13.3333 15V4.16666C13.3333 3.94565 13.2455 3.73369 13.0892 3.57741C12.933 3.42113 12.721 3.33333 12.5 3.33333H4.16665C3.94563 3.33333 3.73367 3.42113 3.57739 3.57741C3.42111 3.73369 3.33331 3.94565 3.33331 4.16666V14.1667C3.33331 14.8297 3.59671 15.4656 4.06555 15.9344C4.53439 16.4033 5.17027 16.6667 5.83331 16.6667H15" stroke="#6B7081" stroke-width="1.25" stroke-linecap="round" stroke-linejoin="round"/>
<path d="M6.66669 6.66667H10" stroke="#6B7081" stroke-width="1.25" stroke-linecap="round" stroke-linejoin="round"/>
<path d="M6.66669 10H10" stroke="#6B7081" stroke-width="1.25" stroke-linecap="round" stroke-linejoin="round"/>
<path d="M6.66669 13.3333H10" stroke="#6B7081" stroke-width="1.25" stroke-linecap="round" stroke-linejoin="round"/>
</svg>
