<svg width="20" height="20" viewBox="0 0 20 20" fill="none" xmlns="http://www.w3.org/2000/svg">
<path d="M7.5 2.5H12.5" stroke="#6B7081" stroke-width="1.25" stroke-linecap="round" stroke-linejoin="round"/>
<path d="M8.33331 7.5H11.6666" stroke="#6B7081" stroke-width="1.25" stroke-linecap="round" stroke-linejoin="round"/>
<path d="M8.33334 2.5V7.5L5 16.6667C4.95979 16.7476 4.93892 16.8367 4.93903 16.927C4.93913 17.0173 4.96021 17.1064 5.00061 17.1872C5.04101 17.268 5.09961 17.3383 5.17181 17.3926C5.24401 17.4469 5.32783 17.4836 5.41667 17.5H14.5833C14.6722 17.4836 14.756 17.4469 14.8282 17.3926C14.9004 17.3383 14.959 17.268 14.9994 17.1872C15.0398 17.1064 15.0609 17.0173 15.061 16.927C15.0611 16.8367 15.0402 16.7476 15 16.6667L11.6667 7.5V2.5" stroke="#6B7081" stroke-width="1.25" stroke-linecap="round" stroke-linejoin="round"/>
</svg>
