<svg width="14" height="16" viewBox="0 0 14 16" fill="none" xmlns="http://www.w3.org/2000/svg">
<path d="M7 9.33337C7.9665 9.33337 8.75 8.43794 8.75 7.33337C8.75 6.2288 7.9665 5.33337 7 5.33337C6.0335 5.33337 5.25 6.2288 5.25 7.33337C5.25 8.43794 6.0335 9.33337 7 9.33337Z" stroke="#B5B7C0" stroke-linecap="round" stroke-linejoin="round"/>
<path d="M10.2998 11.1047L7.82475 13.9334C7.606 14.1831 7.30943 14.3234 7.00021 14.3234C6.691 14.3234 6.39443 14.1831 6.17567 13.9334L3.7 11.1047C3.04738 10.3588 2.60295 9.40852 2.42291 8.37396C2.24286 7.3394 2.33529 6.26706 2.68851 5.29254C3.04172 4.31801 3.63986 3.48508 4.40728 2.89905C5.17471 2.31303 6.07695 2.00024 6.99992 2.00024C7.92289 2.00024 8.82513 2.31303 9.59256 2.89905C10.36 3.48508 10.9581 4.31801 11.3113 5.29254C11.6646 6.26706 11.757 7.3394 11.5769 8.37396C11.3969 9.40852 10.9525 10.3588 10.2998 11.1047V11.1047Z" stroke="#B5B7C0" stroke-linecap="round" stroke-linejoin="round"/>
</svg>
