<svg width="20" height="20" viewBox="0 0 20 20" fill="none" xmlns="http://www.w3.org/2000/svg">
<path d="M3.74999 10.4167L10.4167 3.74999C11.1902 2.97644 12.2394 2.54187 13.3333 2.54187C14.4273 2.54187 15.4764 2.97644 16.25 3.74999C17.0235 4.52354 17.4581 5.5727 17.4581 6.66666C17.4581 7.76062 17.0235 8.80978 16.25 9.58333L9.58333 16.25C8.80978 17.0235 7.76062 17.4581 6.66666 17.4581C5.5727 17.4581 4.52354 17.0235 3.74999 16.25C2.97644 15.4764 2.54187 14.4273 2.54187 13.3333C2.54187 12.2394 2.97644 11.1902 3.74999 10.4167" stroke="#6B7081" stroke-width="1.25" stroke-linecap="round" stroke-linejoin="round"/>
<path d="M7.08331 7.08333L12.9166 12.9167" stroke="#6B7081" stroke-width="1.25" stroke-linecap="round" stroke-linejoin="round"/>
</svg>
