<svg width="25" height="25" viewBox="0 0 25 25" fill="none" xmlns="http://www.w3.org/2000/svg">
<path fill-rule="evenodd" clip-rule="evenodd" d="M6.07538 8.84171C6.07538 6.20934 8.20934 4.07538 10.8417 4.07538C13.4741 4.07538 15.608 6.20934 15.608 8.84171C15.608 11.4741 13.4741 13.608 10.8417 13.608C8.20934 13.608 6.07538 11.4741 6.07538 8.84171ZM10.8417 2C7.06314 2 4 5.06314 4 8.84171C4 12.6203 7.06314 15.6834 10.8417 15.6834C12.3566 15.6834 13.7565 15.1911 14.8901 14.3576L19.2286 18.6961C19.6338 19.1013 20.2908 19.1013 20.6961 18.6961C21.1013 18.2909 21.1013 17.6338 20.6961 17.2286L16.3576 12.8901C17.1911 11.7565 17.6834 10.3566 17.6834 8.84171C17.6834 5.06314 14.6203 2 10.8417 2Z" fill="#F5F6FA"/>
</svg>
