<svg width="20" height="20" viewBox="0 0 20 20" fill="none" xmlns="http://www.w3.org/2000/svg">
<path d="M5 3.33334H4.16667C3.72464 3.33334 3.30072 3.50893 2.98816 3.82149C2.67559 4.13405 2.5 4.55797 2.5 5V7.91667C2.5 9.13224 2.98289 10.298 3.84243 11.1576C4.70197 12.0171 5.86776 12.5 7.08333 12.5C8.29891 12.5 9.4647 12.0171 10.3242 11.1576C11.1838 10.298 11.6667 9.13224 11.6667 7.91667V5C11.6667 4.55797 11.4911 4.13405 11.1785 3.82149C10.8659 3.50893 10.442 3.33334 10 3.33334H9.16667" stroke="#6B7081" stroke-width="1.25" stroke-linecap="round" stroke-linejoin="round"/>
<path d="M6.66663 12.5C6.66663 13.1566 6.79596 13.8068 7.04723 14.4134C7.2985 15.02 7.6668 15.5712 8.13109 16.0355C8.59539 16.4998 9.14658 16.8681 9.75321 17.1194C10.3598 17.3707 11.01 17.5 11.6666 17.5C12.3232 17.5 12.9734 17.3707 13.58 17.1194C14.1867 16.8681 14.7379 16.4998 15.2022 16.0355C15.6665 15.5712 16.0348 15.02 16.286 14.4134C16.5373 13.8068 16.6666 13.1566 16.6666 12.5V10" stroke="#6B7081" stroke-width="1.25" stroke-linecap="round" stroke-linejoin="round"/>
<path d="M9.16663 2.5V4.16667" stroke="#6B7081" stroke-width="1.25" stroke-linecap="round" stroke-linejoin="round"/>
<path d="M5 2.5V4.16667" stroke="#6B7081" stroke-width="1.25" stroke-linecap="round" stroke-linejoin="round"/>
<path d="M16.6667 10C17.5871 10 18.3333 9.25381 18.3333 8.33333C18.3333 7.41286 17.5871 6.66666 16.6667 6.66666C15.7462 6.66666 15 7.41286 15 8.33333C15 9.25381 15.7462 10 16.6667 10Z" stroke="#6B7081" stroke-width="1.25" stroke-linecap="round" stroke-linejoin="round"/>
</svg>
